<svg width="50" height="50" viewBox="0 0 50 50" fill="none" xmlns="http://www.w3.org/2000/svg">
<rect width="50" height="50" rx="25" fill="#42307D"/>
<g clip-path="url(#clip0_385_21460)">
<path d="M29.6956 23.7322L19.1326 16.4666C18.6986 16.1674 18.2472 16.0095 17.8607 16.0095C17.0122 16.0095 16.4496 16.7212 16.4496 17.8664V33.1434C16.4496 33.7028 16.6123 34.1703 16.8535 34.4956C17.0984 34.8254 17.4815 35 17.8953 35C18.2816 35 18.7152 34.8418 19.1491 34.543L29.7025 27.2774C30.3809 26.8098 30.7529 26.1805 30.7528 25.5045C30.7528 24.8289 30.3749 24.1995 29.6956 23.7322Z" fill="white"/>
<path d="M33.5629 34.9953L33.5516 34.9951C33.5497 34.9951 33.5479 34.9953 33.5461 34.9953H33.5629Z" fill="white"/>
<path d="M33.5318 16L33.0951 16.0012C32.5234 16.0012 32.0284 16.4673 32.0284 17.0398V33.9456C32.0284 34.5187 32.5152 34.9892 33.0877 34.9892L33.5516 34.9951C34.1212 34.992 34.5503 34.5175 34.5503 33.9465V17.0387C34.5503 16.4662 34.104 16 33.5318 16Z" fill="white"/>
</g>
<defs>
<clipPath id="clip0_385_21460">
<rect width="19" height="19" fill="white" transform="translate(16 16)"/>
</clipPath>
</defs>
</svg>
