<svg id="Capa_1" enable-background="new 0 0 512 512" height="512" viewBox="0 0 512 512" width="512" xmlns="http://www.w3.org/2000/svg"><g><path d="m375 192v-69.101l47.155-21.22c11.725-5.276 11.792-21.979.071-27.325l-160-73c-3.955-1.805-8.498-1.805-12.453 0l-160 73c-11.698 5.336-11.677 22.039.071 27.325l47.156 21.22v69.101c0 5.851 3.402 11.167 8.714 13.62l104 48c3.987 1.84 8.584 1.841 12.572 0l104-48c5.312-2.453 8.714-7.769 8.714-13.62zm-119-160.513 123.656 56.418-123.656 55.646-123.656-55.645zm0 191.992-89-41.077v-46.004l82.845 37.28c3.914 1.762 8.396 1.762 12.311 0l82.844-37.28v46.004z"/><path d="m217.827 331.517c-3.908-9.118-10.837-16.792-19.507-21.609l-63.036-35.02c-3.674-2.042-8.039-2.447-12.027-1.118-11.782 3.928-21.622 11.556-28.257 21.645v-98.415c0-33.084-26.916-60-60-60h-20c-8.284 0-15 6.716-15 15v208c0 2.894.837 5.726 2.41 8.155l52.18 80.557c1.577 2.435 2.41 5.254 2.41 8.155v40.133c0 8.284 6.716 15 15 15h152c8.284 0 15-6.716 15-15v-100.685c0-10.215-2.04-20.156-6.064-29.544zm-8.827 150.483h-122v-25.133c0-8.702-2.5-17.161-7.23-24.464l-49.77-76.837v-188.566h5c16.542 0 30 13.458 30 30v107c0 2.853.813 5.646 2.345 8.053l56 88c4.448 6.989 13.72 9.051 20.708 4.602 6.989-4.447 9.05-13.719 4.603-20.708l-28.836-45.314c-7.47-11.737-3.574-26.825 7.518-33.842l56.414 31.341c2.89 1.606 5.199 4.164 6.502 7.203l15.108 35.254c2.414 5.633 3.639 11.597 3.639 17.726v85.685z"/><path d="m497 137h-20c-33.084 0-60 26.916-60 60v98.415c-6.635-10.089-16.475-17.717-28.257-21.645-3.989-1.33-8.354-.923-12.027 1.118l-63.035 35.02c-8.671 4.817-15.6 12.491-19.508 21.61l-15.108 35.253c-4.025 9.389-6.065 19.329-6.065 29.544v100.685c0 8.284 6.716 15 15 15h152c8.284 0 15-6.716 15-15v-40.133c0-2.901.833-5.721 2.41-8.155l52.18-80.558c1.573-2.429 2.41-5.261 2.41-8.155v-207.999c0-8.284-6.716-15-15-15zm-15 218.566-49.77 76.837c-4.73 7.303-7.23 15.762-7.23 24.464v25.133h-122v-85.685c0-6.129 1.225-12.093 3.639-17.727l15.108-35.253c1.303-3.04 3.612-5.598 6.502-7.204l56.414-31.341c11.098 7.021 14.984 22.112 7.518 33.842l-28.836 45.314c-4.447 6.989-2.387 16.261 4.603 20.708 6.985 4.447 16.259 2.388 20.708-4.602l56-88c1.531-2.407 2.345-5.201 2.345-8.053v-106.999c0-16.542 13.458-30 30-30h5v188.566z"/></g></svg>