<?xml version="1.0" encoding="UTF-8" standalone="no"?>
<!-- Created with Inkscape (http://www.inkscape.org/) -->

<svg
   version="1.1"
   id="svg2073"
   xml:space="preserve"
   width="682.66669"
   height="682.66669"
   viewBox="0 0 682.66669 682.66669"
   xmlns="http://www.w3.org/2000/svg"
   xmlns:svg="http://www.w3.org/2000/svg"><defs
     id="defs2077"><clipPath
       clipPathUnits="userSpaceOnUse"
       id="clipPath2087"><path
         d="M 0,512 H 512 V 0 H 0 Z"
         id="path2085" /></clipPath></defs><g
     id="g2079"
     transform="matrix(1.3333333,0,0,-1.3333333,0,682.66667)"><g
       id="g2081"><g
         id="g2083"
         clip-path="url(#clipPath2087)"><g
           id="g2089"
           transform="translate(452.667,413.333)"><path
             d="m 0,0 c 0,-43.446 -35.221,-78.666 -78.667,-78.666 -43.446,0 -78.667,35.22 -78.667,78.666 0,43.446 35.221,78.667 78.667,78.667 C -35.221,78.667 0,43.446 0,0 Z"
             style="fill:none;stroke:#000000;stroke-width:40;stroke-linecap:round;stroke-linejoin:round;stroke-miterlimit:10;stroke-dasharray:none;stroke-opacity:1"
             id="path2091" /></g><g
           id="g2093"
           transform="translate(308.3418,314.7246)"><path
             d="m 0,0 c 18.771,12.595 41.358,19.942 65.662,19.942 65.167,0 117.996,-52.829 117.996,-117.996 v -39.338 h -471.996"
             style="fill:none;stroke:#000000;stroke-width:40;stroke-linecap:round;stroke-linejoin:round;stroke-miterlimit:10;stroke-dasharray:none;stroke-opacity:1"
             id="path2095" /></g><g
           id="g2097"
           transform="translate(216.6631,413.333)"><path
             d="m 0,0 c 0,-43.446 -35.221,-78.666 -78.667,-78.666 -43.446,0 -78.666,35.22 -78.666,78.666 0,43.446 35.22,78.667 78.666,78.667 C -35.221,78.667 0,43.446 0,0 Z"
             style="fill:none;stroke:#000000;stroke-width:40;stroke-linecap:round;stroke-linejoin:round;stroke-miterlimit:10;stroke-dasharray:none;stroke-opacity:1"
             id="path2099" /></g><g
           id="g2101"
           transform="translate(20.0039,177.333)"><path
             d="m 0,0 v 39.338 c 0,65.167 52.829,117.996 117.996,117.996 24.303,0 46.889,-7.348 65.66,-19.941"
             style="fill:none;stroke:#000000;stroke-width:40;stroke-linecap:round;stroke-linejoin:round;stroke-miterlimit:10;stroke-dasharray:none;stroke-opacity:1"
             id="path2103" /></g><g
           id="g2105"
           transform="translate(334.6699,256)"><path
             d="m 0,0 c 0,-43.446 -35.22,-78.667 -78.666,-78.667 -43.447,0 -78.667,35.221 -78.667,78.667 0,43.446 35.22,78.667 78.667,78.667 C -35.22,78.667 0,43.446 0,0 Z"
             style="fill:none;stroke:#000000;stroke-width:40;stroke-linecap:round;stroke-linejoin:round;stroke-miterlimit:10;stroke-dasharray:none;stroke-opacity:1"
             id="path2107" /></g><g
           id="g2109"
           transform="translate(374.0039,20)"><path
             d="m 0,0 v 39.337 c 0,65.168 -52.829,117.996 -117.996,117.996 h -0.001 c -65.167,0 -117.996,-52.828 -117.996,-117.996 V 0 Z"
             style="fill:none;stroke:#000000;stroke-width:40;stroke-linecap:round;stroke-linejoin:round;stroke-miterlimit:10;stroke-dasharray:none;stroke-opacity:1"
             id="path2111" /></g></g></g></g></svg>
